# xmcd
#
# Track frame offsets: 
#        150
#        13110
#        26762
#        45487
#        63050
#        76242
#        92227
#        108620
#        124835
#        135615
#        149922
#        162327
#
# Disc length: 2308 seconds
#
# Revision: 0
# Processed by: cddbd v1.4PL0 Copyright (c) Steve Scherf et al.
# Submitted via: ExactAudioCopy v0.90b4
#
DISCID=a509020c
DTITLE=Ricky Skaggs - Collection - Disc 3
DYEAR=1900
DGENRE=Country
TTITLE0=She's More To Be Pitied
TTITLE1=I Wouldn't Chnage You If I Could
TTITLE2=San Antonio Rose
TTITLE3=She Didn't Say Why
TTITLE4=Low And Lonely
TTITLE5=Honey (Open That Door)
TTITLE6=Home Is Wherever You Are
TTITLE7=Love's Gonna Get you Someday
TTITLE8=Lonesome For You
TTITLE9=Hummingbird
TTITLE10=Let's Love The Bad Times Away
TTITLE11=Uncle Pen
EXTD=
EXTT0=
EXTT1=
EXTT2=
EXTT3=
EXTT4=
EXTT5=
EXTT6=
EXTT7=
EXTT8=
EXTT9=
EXTT10=
EXTT11=
PLAYORDER=
